<svg width="128" height="128" viewBox="0 0 128 128" fill="none" xmlns="http://www.w3.org/2000/svg">
  <rect width="128" height="128" rx="36" fill="#0B0E15"/>
  <rect x="10" y="10" width="108" height="108" rx="28" fill="url(#bg)" stroke="url(#stroke)" stroke-width="1.5"/>
  <path d="M64 25L91 35V59C91 77.7 79.34 94.41 64 101C48.66 94.41 37 77.7 37 59V35L64 25Z" fill="url(#shieldFill)"/>
  <path d="M64 35L82 41.6V58.37C82 72.06 74.13 84.23 64 89.3C53.87 84.23 46 72.06 46 58.37V41.6L64 35Z" fill="#0F1420"/>
  <path d="M54 60.5L61 67.5L74 51.5" stroke="url(#check)" stroke-width="5.5" stroke-linecap="round" stroke-linejoin="round"/>
  <defs>
    <linearGradient id="bg" x1="22" y1="18" x2="102" y2="116" gradientUnits="userSpaceOnUse">
      <stop stop-color="#101723"/>
      <stop offset="1" stop-color="#090C13"/>
    </linearGradient>
    <linearGradient id="stroke" x1="16" y1="14" x2="109" y2="116" gradientUnits="userSpaceOnUse">
      <stop stop-color="#3F4A62"/>
      <stop offset="1" stop-color="#1A2030"/>
    </linearGradient>
    <linearGradient id="shieldFill" x1="37" y1="25" x2="94" y2="98" gradientUnits="userSpaceOnUse">
      <stop stop-color="#5B8CFF"/>
      <stop offset="0.45" stop-color="#45E08A"/>
      <stop offset="1" stop-color="#1E6C42"/>
    </linearGradient>
    <linearGradient id="check" x1="54" y1="51.5" x2="78" y2="69" gradientUnits="userSpaceOnUse">
      <stop stop-color="#B7FFCF"/>
      <stop offset="1" stop-color="#45E08A"/>
    </linearGradient>
  </defs>
</svg>
