<svg width="96" height="96" viewBox="0 0 96 96" fill="none" xmlns="http://www.w3.org/2000/svg">
  <circle cx="48" cy="48" r="34" fill="#25D366"/>
  <path d="M48.06 29C37.59 29 29.06 37.28 29.06 47.53C29.06 51.18 30.15 54.59 32.01 57.48L29.2 67L39.11 64.39C41.82 65.84 44.86 66.59 48.06 66.59C58.53 66.59 67.06 58.31 67.06 48.06C67.06 37.81 58.53 29 48.06 29Z" fill="white"/>
  <path d="M42.42 38.24C42.02 37.34 41.61 37.47 41.24 37.45C40.93 37.43 40.58 37.43 40.23 37.43C39.88 37.43 39.3 37.56 38.81 38.08C38.32 38.6 36.96 39.87 36.96 42.48C36.96 45.08 38.85 47.59 39.11 47.93C39.37 48.27 42.71 53.57 47.84 55.72C52.09 57.51 52.97 57.15 53.9 57.07C54.83 56.99 56.89 55.83 57.31 54.66C57.73 53.49 57.73 52.49 57.61 52.28C57.5 52.07 57.18 51.95 56.7 51.72C56.21 51.48 53.82 50.33 53.37 50.17C52.92 50.01 52.59 49.93 52.25 50.42C51.91 50.92 50.92 52.08 50.63 52.42C50.34 52.76 50.06 52.81 49.57 52.57C49.08 52.33 47.5 51.84 45.63 50.18C44.18 48.9 43.19 47.31 42.9 46.82C42.61 46.32 42.87 46.05 43.12 45.8C43.35 45.56 43.61 45.18 43.85 44.9C44.09 44.62 44.17 44.41 44.33 44.08C44.49 43.74 44.41 43.46 44.29 43.23C44.17 43 43.23 40.74 42.42 38.24Z" fill="#25D366"/>
</svg>
