<svg width="96" height="96" viewBox="0 0 96 96" fill="none" xmlns="http://www.w3.org/2000/svg">
  <circle cx="48" cy="48" r="36" fill="#18C964"/>
  <path d="M48.2 26C36.4 26 26.8 35.3 26.8 46.9C26.8 51.2 28.2 55.2 30.7 58.5L27.5 70L39.5 67C42.6 69.1 46.2 70.2 50 70.2C61.8 70.2 71.4 60.9 71.4 49.3C71.4 37.7 60 26 48.2 26Z" fill="white"/>
  <path d="M57.3 53.2C56.8 52.9 54.2 51.6 53.7 51.5C53.2 51.3 52.9 51.2 52.5 51.7C52.1 52.2 51 53.5 50.7 53.8C50.4 54.1 50.1 54.2 49.6 53.9C46.7 52.5 44.8 50.8 43 47.8C42.5 47 43 46.9 43.7 45.8C43.9 45.5 44.1 45.2 44.3 44.9C44.5 44.6 44.4 44.3 44.3 44C44.2 43.7 43.2 41.2 42.8 40.3C42.4 39.4 42 39.5 41.7 39.5C41.4 39.5 41 39.5 40.7 39.5C40.4 39.5 39.8 39.6 39.3 40.1C38.8 40.6 37.4 41.9 37.4 44.6C37.4 47.3 39.4 49.9 39.7 50.3C40 50.6 43.3 55.9 48.4 58C49.6 58.6 50.6 59 51.4 59.2C52.7 59.6 53.9 59.5 54.8 59.4C55.8 59.2 57.9 58 58.3 56.8C58.7 55.6 58.7 54.6 58.6 54.3C58.4 54 58 53.7 57.3 53.2Z" fill="#18C964"/>
</svg>
