<svg width="96" height="96" viewBox="0 0 96 96" fill="none" xmlns="http://www.w3.org/2000/svg">
  <circle cx="48" cy="48" r="34" fill="#1A73E8"/>
  <path d="M30 35.5C30 31.91 32.91 29 36.5 29H59.5C63.09 29 66 31.91 66 35.5V52.25C66 55.84 63.09 58.75 59.5 58.75H43.14L34 67V58.75H36.5C32.91 58.75 30 55.84 30 52.25V35.5Z" fill="white"/>
  <path d="M38 38.75C38 37.78 38.78 37 39.75 37H56.25C57.22 37 58 37.78 58 38.75C58 39.72 57.22 40.5 56.25 40.5H39.75C38.78 40.5 38 39.72 38 38.75Z" fill="#1A73E8"/>
  <path d="M38 46.25C38 45.28 38.78 44.5 39.75 44.5H52.25C53.22 44.5 54 45.28 54 46.25C54 47.22 53.22 48 52.25 48H39.75C38.78 48 38 47.22 38 46.25Z" fill="#1A73E8"/>
</svg>
