<svg width="96" height="96" viewBox="0 0 96 96" fill="none" xmlns="http://www.w3.org/2000/svg">
  <circle cx="48" cy="48" r="34" fill="#25D366"/>
  <path d="M48.08 28C37.11 28 28.22 36.76 28.22 47.57C28.22 51.31 29.29 54.79 31.15 57.76L28.22 68L38.88 65.22C41.69 66.75 44.91 67.13 48.08 67.13C59.05 67.13 67.94 58.38 67.94 47.57C67.94 36.76 59.05 28 48.08 28ZM58.69 55.32C58.26 56.52 56.3 57.54 55.18 57.72C54.43 57.84 53.48 57.88 52.42 57.54C51.78 57.33 50.96 57.08 49.97 56.65C43.29 53.76 38.95 46.84 38.61 46.38C38.29 45.93 35.92 42.81 35.92 39.58C35.92 36.35 37.56 34.79 38.15 34.19C38.74 33.59 39.44 33.44 39.83 33.44C40.21 33.44 40.59 33.44 40.93 33.46C41.26 33.47 41.72 33.33 42.15 34.36C42.58 35.39 43.61 37.93 43.76 38.25C43.91 38.57 44.02 38.95 43.8 39.39C43.59 39.82 43.48 40.08 43.16 40.52C42.84 40.95 42.49 41.48 42.2 41.82C41.9 42.17 41.58 42.54 42.04 43.33C42.49 44.12 44.06 46.66 46.37 48.72C49.35 51.36 51.86 52.18 52.68 52.51C53.5 52.85 53.98 52.79 54.35 52.39C54.72 52 55.92 50.6 56.32 50.02C56.72 49.44 57.14 49.54 57.73 49.76C58.31 49.98 61.43 51.5 62.06 51.8C62.68 52.12 63.09 52.28 63.23 52.5C63.37 52.72 63.37 53.75 62.94 54.95L58.69 55.32Z" fill="white"/>
</svg>
